<svg xmlns="http://www.w3.org/2000/svg" width="1122" height="590" viewBox="0 0 1122 590" role="img" aria-labelledby="title desc">
  <title id="title">QA release maze</title>
  <desc id="desc">An animated quality signal travels from planning through testing, triage, verification, and release.</desc>
  <defs>
    <linearGradient id="background" x1="0" y1="0" x2="1" y2="1"><stop offset="0" stop-color="#07111f"/><stop offset="1" stop-color="#11102a"/></linearGradient>
    <linearGradient id="route" x1="0" y1="0" x2="1" y2="0"><stop offset="0" stop-color="#39d0d8"/><stop offset=".55" stop-color="#60a5fa"/><stop offset="1" stop-color="#a78bfa"/></linearGradient>
    <filter id="glow" x="-200%" y="-200%" width="500%" height="500%"><feGaussianBlur stdDeviation="7" result="blur"/><feMerge><feMergeNode in="blur"/><feMergeNode in="SourceGraphic"/></feMerge></filter>
    <pattern id="grid" width="28" height="28" patternUnits="userSpaceOnUse"><path d="M28 0H0V28" fill="none" stroke="#8b949e" stroke-opacity=".045"/></pattern>
    <style>
      .mono{font:600 12px ui-monospace,SFMono-Regular,Menlo,Consolas,monospace;letter-spacing:1.4px}.heading{font:800 24px Inter,Segoe UI,Arial,sans-serif}.checkpoint{font:700 10px ui-monospace,SFMono-Regular,Menlo,Consolas,monospace;letter-spacing:1px}
      .runner{offset-path:path('M101 143 L147 143 L193 143 L193 189 L147 189 L147 235 L101 235 L101 281 L147 281 L147 327 L101 327 L101 373 L147 373 L193 373 L193 419 L239 419 L239 465 L193 465 L147 465 L101 465 L101 511 L147 511 L193 511 L239 511 L285 511 L331 511 L377 511 L423 511 L469 511 L515 511 L515 465 L469 465 L469 419 L515 419 L561 419 L607 419 L653 419 L653 373 L699 373 L745 373 L745 419 L745 465 L699 465 L653 465 L607 465 L561 465 L561 511 L607 511 L653 511 L699 511 L745 511 L791 511 L791 465 L791 419 L837 419 L837 373 L791 373 L791 327 L837 327 L883 327 L883 373 L929 373 L929 419 L929 465 L929 511 L975 511 L1021 511');offset-rotate:0deg;animation:travel 13s cubic-bezier(.65,0,.35,1) infinite}.dash{stroke-dasharray:7 10;animation:dash 9s linear infinite}.release{animation:pulse 2.2s ease-in-out infinite;transform-box:fill-box;transform-origin:center}
      @keyframes travel{0%,4%{offset-distance:0%;opacity:0}7%{opacity:1}90%{offset-distance:100%;opacity:1}96%,100%{offset-distance:100%;opacity:0}}@keyframes dash{to{stroke-dashoffset:-170}}@keyframes pulse{50%{opacity:.35;transform:scale(1.35)}}
      @media(prefers-reduced-motion:reduce){.runner,.dash,.release{animation:none}.runner{offset-distance:100%;opacity:1}}
    </style>
  </defs>
  <rect width="1122" height="590" rx="24" fill="url(#background)"/>
  <rect x="1" y="1" width="1120" height="588" rx="23" fill="none" stroke="#2b3952"/>
  <rect width="1122" height="590" rx="24" fill="url(#grid)"/>
  <text x="78" y="48" fill="#8be8ec" class="mono">QUALITY PIPELINE / 2026-W29</text>
  <text x="78" y="82" fill="#f0f6fc" class="heading">A release is earned one signal at a time.</text>
  <text x="1044" y="64" text-anchor="end" fill="#8b949e" class="mono">PLAN → TEST → TRIAGE → VERIFY → RELEASE</text>
  <path d="M78 120h46M78 120v46M124 120h46M170 120h46M216 120h46M216 120v46M262 120h46M308 120h46M354 120h46M400 120h46M446 120h46M492 120h46M492 120v46M538 120h46M584 120h46M630 120h46M676 120h46M722 120h46M722 120v46M768 120h46M814 120h46M860 120h46M860 120v46M906 120h46M952 120h46M998 120h46M998 120v46M1044 120v46M78 166h46M78 166v46M124 166h46M124 166v46M216 166v46M262 166h46M262 166v46M354 166h46M354 166v46M400 166h46M446 166h46M538 166h46M584 166v46M630 166h46M676 166v46M722 166v46M768 166h46M814 166v46M906 166v46M952 166v46M998 166v46M1044 166v46M78 212v46M170 212h46M170 212v46M262 212v46M308 212h46M400 212h46M400 212v46M446 212h46M492 212h46M492 212v46M538 212h46M584 212h46M676 212v46M722 212h46M768 212v46M814 212h46M814 212v46M860 212h46M952 212v46M1044 212v46M78 258v46M124 258h46M170 258v46M216 258h46M216 258v46M262 258h46M308 258h46M308 258v46M354 258h46M400 258h46M492 258v46M538 258h46M584 258h46M584 258v46M630 258h46M722 258h46M722 258v46M814 258v46M860 258h46M906 258h46M952 258h46M952 258v46M1044 258v46M78 304h46M78 304v46M170 304v46M262 304v46M308 304v46M354 304h46M400 304h46M400 304v46M446 304h46M492 304h46M584 304h46M584 304v46M630 304h46M676 304h46M768 304h46M768 304v46M814 304h46M860 304h46M906 304v46M952 304h46M998 304h46M1044 304v46M78 350v46M124 350h46M170 350h46M216 350h46M216 350v46M308 350h46M308 350v46M400 350v46M446 350h46M492 350h46M538 350h46M630 350h46M630 350v46M676 350h46M722 350h46M768 350v46M814 350h46M860 350v46M906 350h46M952 350h46M952 350v46M1044 350v46M78 396h46M78 396v46M124 396h46M170 396v46M216 396h46M262 396v46M354 396v46M400 396h46M400 396v46M446 396h46M446 396v46M492 396h46M538 396h46M584 396h46M676 396h46M676 396v46M722 396v46M768 396h46M768 396v46M860 396h46M860 396v46M906 396v46M952 396v46M998 396h46M1044 396v46M78 442v46M124 442h46M170 442h46M262 442h46M262 442v46M308 442h46M446 442v46M492 442h46M538 442h46M538 442v46M584 442h46M630 442h46M768 442v46M814 442h46M814 442v46M906 442v46M952 442v46M998 442v46M1044 442v46M78 488v46M78 534h46M124 488h46M124 534h46M170 488h46M170 534h46M216 488h46M216 534h46M262 488h46M262 534h46M308 488h46M308 534h46M354 488h46M354 534h46M400 488h46M400 534h46M446 488h46M446 534h46M492 534h46M538 488v46M538 534h46M584 488h46M584 534h46M630 488h46M630 534h46M676 488h46M676 534h46M722 488h46M722 534h46M768 534h46M814 488v46M814 534h46M860 488h46M860 534h46M906 534h46M952 488h46M952 534h46M998 534h46M1044 488v46" fill="none" stroke="#334155" stroke-width="2" stroke-linecap="round"/>
  <path d="M101 143 L147 143 L193 143 L193 189 L147 189 L147 235 L101 235 L101 281 L147 281 L147 327 L101 327 L101 373 L147 373 L193 373 L193 419 L239 419 L239 465 L193 465 L147 465 L101 465 L101 511 L147 511 L193 511 L239 511 L285 511 L331 511 L377 511 L423 511 L469 511 L515 511 L515 465 L469 465 L469 419 L515 419 L561 419 L607 419 L653 419 L653 373 L699 373 L745 373 L745 419 L745 465 L699 465 L653 465 L607 465 L561 465 L561 511 L607 511 L653 511 L699 511 L745 511 L791 511 L791 465 L791 419 L837 419 L837 373 L791 373 L791 327 L837 327 L883 327 L883 373 L929 373 L929 419 L929 465 L929 511 L975 511 L1021 511" fill="none" stroke="#17243a" stroke-width="11" stroke-linecap="round" stroke-linejoin="round" opacity=".9"/>
  <path class="dash" d="M101 143 L147 143 L193 143 L193 189 L147 189 L147 235 L101 235 L101 281 L147 281 L147 327 L101 327 L101 373 L147 373 L193 373 L193 419 L239 419 L239 465 L193 465 L147 465 L101 465 L101 511 L147 511 L193 511 L239 511 L285 511 L331 511 L377 511 L423 511 L469 511 L515 511 L515 465 L469 465 L469 419 L515 419 L561 419 L607 419 L653 419 L653 373 L699 373 L745 373 L745 419 L745 465 L699 465 L653 465 L607 465 L561 465 L561 511 L607 511 L653 511 L699 511 L745 511 L791 511 L791 465 L791 419 L837 419 L837 373 L791 373 L791 327 L837 327 L883 327 L883 373 L929 373 L929 419 L929 465 L929 511 L975 511 L1021 511" fill="none" stroke="url(#route)" stroke-width="3" stroke-linecap="round" stroke-linejoin="round" opacity=".72"/>
  <circle cx="101" cy="143" r="8" fill="#07111f" stroke="#39d0d8" stroke-width="3"/>
  <circle class="release" cx="1021" cy="511" r="9" fill="#22c55e" filter="url(#glow)"/>
  <circle class="runner" cx="0" cy="0" r="13" fill="#39d0d8" opacity=".2" filter="url(#glow)"/>
  <circle class="runner" cx="0" cy="0" r="5" fill="#f0fdfa"/>
  <g transform="translate(74.0 105.0)">
      <rect width="54" height="24" rx="12" fill="#091321" stroke="#8be8ec" stroke-opacity=".65"/>
      <text x="27" y="16" text-anchor="middle" fill="#8be8ec" class="checkpoint">PLAN</text>
    </g>
    <g transform="translate(166.0 483.0)">
      <rect width="54" height="24" rx="12" fill="#091321" stroke="#c4b5fd" stroke-opacity=".65"/>
      <text x="27" y="16" text-anchor="middle" fill="#c4b5fd" class="checkpoint">TEST</text>
    </g>
    <g transform="translate(480.0 381.0)">
      <rect width="70" height="24" rx="12" fill="#091321" stroke="#c4b5fd" stroke-opacity=".65"/>
      <text x="35" y="16" text-anchor="middle" fill="#c4b5fd" class="checkpoint">TRIAGE</text>
    </g>
    <g transform="translate(710.0 529.0)">
      <rect width="70" height="24" rx="12" fill="#091321" stroke="#c4b5fd" stroke-opacity=".65"/>
      <text x="35" y="16" text-anchor="middle" fill="#c4b5fd" class="checkpoint">VERIFY</text>
    </g>
    <g transform="translate(982.0 473.0)">
      <rect width="78" height="24" rx="12" fill="#091321" stroke="#86efac" stroke-opacity=".65"/>
      <text x="39" y="16" text-anchor="middle" fill="#86efac" class="checkpoint">RELEASE</text>
    </g>
  <text x="78" y="558" fill="#65758b" class="mono">RISK IDENTIFIED</text>
  <text x="1044" y="558" text-anchor="end" fill="#86efac" class="mono">RELEASE CONFIDENCE</text>
</svg>
